<?xml version="1.0" standalone="no"?>
<svg xmlns="http://www.w3.org/2000/svg" version="1.1" width="248" height="248">
	<!-- Created with https://api.qrserver.com (QR Code API, see goQR.me/api for information) -->
	<title>QR Code</title>
	<desc>0x75105e510adf9fa0b1b1a5d35f9d8594ad36d8ed</desc>
	<rect style="fill:rgb(255, 255, 255);fill-opacity:1" x="0" y="0" width="248" height="248" />
	<g id="elements">
		<path style="fill:rgb(0, 0, 0)" d="M 8,8 l 8,0 0,8 -8,0 z M 16,8 l 8,0 0,8 -8,0 z M 24,8 l 8,0 0,8 -8,0 z M 32,8 l 8,0 0,8 -8,0 z M 40,8 l 8,0 0,8 -8,0 z M 48,8 l 8,0 0,8 -8,0 z M 56,8 l 8,0 0,8 -8,0 z M 88,8 l 8,0 0,8 -8,0 z M 104,8 l 8,0 0,8 -8,0 z M 112,8 l 8,0 0,8 -8,0 z M 144,8 l 8,0 0,8 -8,0 z M 152,8 l 8,0 0,8 -8,0 z M 160,8 l 8,0 0,8 -8,0 z M 184,8 l 8,0 0,8 -8,0 z M 192,8 l 8,0 0,8 -8,0 z M 200,8 l 8,0 0,8 -8,0 z M 208,8 l 8,0 0,8 -8,0 z M 216,8 l 8,0 0,8 -8,0 z M 224,8 l 8,0 0,8 -8,0 z M 232,8 l 8,0 0,8 -8,0 z M 8,16 l 8,0 0,8 -8,0 z M 56,16 l 8,0 0,8 -8,0 z M 72,16 l 8,0 0,8 -8,0 z M 88,16 l 8,0 0,8 -8,0 z M 120,16 l 8,0 0,8 -8,0 z M 128,16 l 8,0 0,8 -8,0 z M 184,16 l 8,0 0,8 -8,0 z M 232,16 l 8,0 0,8 -8,0 z M 8,24 l 8,0 0,8 -8,0 z M 24,24 l 8,0 0,8 -8,0 z M 32,24 l 8,0 0,8 -8,0 z M 40,24 l 8,0 0,8 -8,0 z M 56,24 l 8,0 0,8 -8,0 z M 104,24 l 8,0 0,8 -8,0 z M 112,24 l 8,0 0,8 -8,0 z M 128,24 l 8,0 0,8 -8,0 z M 136,24 l 8,0 0,8 -8,0 z M 152,24 l 8,0 0,8 -8,0 z M 160,24 l 8,0 0,8 -8,0 z M 168,24 l 8,0 0,8 -8,0 z M 184,24 l 8,0 0,8 -8,0 z M 200,24 l 8,0 0,8 -8,0 z M 208,24 l 8,0 0,8 -8,0 z M 216,24 l 8,0 0,8 -8,0 z M 232,24 l 8,0 0,8 -8,0 z M 8,32 l 8,0 0,8 -8,0 z M 24,32 l 8,0 0,8 -8,0 z M 32,32 l 8,0 0,8 -8,0 z M 40,32 l 8,0 0,8 -8,0 z M 56,32 l 8,0 0,8 -8,0 z M 72,32 l 8,0 0,8 -8,0 z M 80,32 l 8,0 0,8 -8,0 z M 88,32 l 8,0 0,8 -8,0 z M 104,32 l 8,0 0,8 -8,0 z M 144,32 l 8,0 0,8 -8,0 z M 152,32 l 8,0 0,8 -8,0 z M 184,32 l 8,0 0,8 -8,0 z M 200,32 l 8,0 0,8 -8,0 z M 208,32 l 8,0 0,8 -8,0 z M 216,32 l 8,0 0,8 -8,0 z M 232,32 l 8,0 0,8 -8,0 z M 8,40 l 8,0 0,8 -8,0 z M 24,40 l 8,0 0,8 -8,0 z M 32,40 l 8,0 0,8 -8,0 z M 40,40 l 8,0 0,8 -8,0 z M 56,40 l 8,0 0,8 -8,0 z M 80,40 l 8,0 0,8 -8,0 z M 128,40 l 8,0 0,8 -8,0 z M 152,40 l 8,0 0,8 -8,0 z M 168,40 l 8,0 0,8 -8,0 z M 184,40 l 8,0 0,8 -8,0 z M 200,40 l 8,0 0,8 -8,0 z M 208,40 l 8,0 0,8 -8,0 z M 216,40 l 8,0 0,8 -8,0 z M 232,40 l 8,0 0,8 -8,0 z M 8,48 l 8,0 0,8 -8,0 z M 56,48 l 8,0 0,8 -8,0 z M 72,48 l 8,0 0,8 -8,0 z M 80,48 l 8,0 0,8 -8,0 z M 96,48 l 8,0 0,8 -8,0 z M 104,48 l 8,0 0,8 -8,0 z M 112,48 l 8,0 0,8 -8,0 z M 120,48 l 8,0 0,8 -8,0 z M 128,48 l 8,0 0,8 -8,0 z M 136,48 l 8,0 0,8 -8,0 z M 144,48 l 8,0 0,8 -8,0 z M 184,48 l 8,0 0,8 -8,0 z M 232,48 l 8,0 0,8 -8,0 z M 8,56 l 8,0 0,8 -8,0 z M 16,56 l 8,0 0,8 -8,0 z M 24,56 l 8,0 0,8 -8,0 z M 32,56 l 8,0 0,8 -8,0 z M 40,56 l 8,0 0,8 -8,0 z M 48,56 l 8,0 0,8 -8,0 z M 56,56 l 8,0 0,8 -8,0 z M 72,56 l 8,0 0,8 -8,0 z M 88,56 l 8,0 0,8 -8,0 z M 104,56 l 8,0 0,8 -8,0 z M 120,56 l 8,0 0,8 -8,0 z M 136,56 l 8,0 0,8 -8,0 z M 152,56 l 8,0 0,8 -8,0 z M 168,56 l 8,0 0,8 -8,0 z M 184,56 l 8,0 0,8 -8,0 z M 192,56 l 8,0 0,8 -8,0 z M 200,56 l 8,0 0,8 -8,0 z M 208,56 l 8,0 0,8 -8,0 z M 216,56 l 8,0 0,8 -8,0 z M 224,56 l 8,0 0,8 -8,0 z M 232,56 l 8,0 0,8 -8,0 z M 80,64 l 8,0 0,8 -8,0 z M 88,64 l 8,0 0,8 -8,0 z M 96,64 l 8,0 0,8 -8,0 z M 128,64 l 8,0 0,8 -8,0 z M 144,64 l 8,0 0,8 -8,0 z M 152,64 l 8,0 0,8 -8,0 z M 168,64 l 8,0 0,8 -8,0 z M 8,72 l 8,0 0,8 -8,0 z M 16,72 l 8,0 0,8 -8,0 z M 24,72 l 8,0 0,8 -8,0 z M 32,72 l 8,0 0,8 -8,0 z M 40,72 l 8,0 0,8 -8,0 z M 56,72 l 8,0 0,8 -8,0 z M 64,72 l 8,0 0,8 -8,0 z M 72,72 l 8,0 0,8 -8,0 z M 80,72 l 8,0 0,8 -8,0 z M 96,72 l 8,0 0,8 -8,0 z M 112,72 l 8,0 0,8 -8,0 z M 120,72 l 8,0 0,8 -8,0 z M 128,72 l 8,0 0,8 -8,0 z M 144,72 l 8,0 0,8 -8,0 z M 152,72 l 8,0 0,8 -8,0 z M 160,72 l 8,0 0,8 -8,0 z M 176,72 l 8,0 0,8 -8,0 z M 192,72 l 8,0 0,8 -8,0 z M 208,72 l 8,0 0,8 -8,0 z M 224,72 l 8,0 0,8 -8,0 z M 16,80 l 8,0 0,8 -8,0 z M 24,80 l 8,0 0,8 -8,0 z M 88,80 l 8,0 0,8 -8,0 z M 104,80 l 8,0 0,8 -8,0 z M 128,80 l 8,0 0,8 -8,0 z M 144,80 l 8,0 0,8 -8,0 z M 152,80 l 8,0 0,8 -8,0 z M 160,80 l 8,0 0,8 -8,0 z M 176,80 l 8,0 0,8 -8,0 z M 184,80 l 8,0 0,8 -8,0 z M 200,80 l 8,0 0,8 -8,0 z M 208,80 l 8,0 0,8 -8,0 z M 8,88 l 8,0 0,8 -8,0 z M 32,88 l 8,0 0,8 -8,0 z M 48,88 l 8,0 0,8 -8,0 z M 56,88 l 8,0 0,8 -8,0 z M 64,88 l 8,0 0,8 -8,0 z M 88,88 l 8,0 0,8 -8,0 z M 112,88 l 8,0 0,8 -8,0 z M 120,88 l 8,0 0,8 -8,0 z M 184,88 l 8,0 0,8 -8,0 z M 200,88 l 8,0 0,8 -8,0 z M 216,88 l 8,0 0,8 -8,0 z M 224,88 l 8,0 0,8 -8,0 z M 8,96 l 8,0 0,8 -8,0 z M 64,96 l 8,0 0,8 -8,0 z M 72,96 l 8,0 0,8 -8,0 z M 104,96 l 8,0 0,8 -8,0 z M 112,96 l 8,0 0,8 -8,0 z M 128,96 l 8,0 0,8 -8,0 z M 144,96 l 8,0 0,8 -8,0 z M 152,96 l 8,0 0,8 -8,0 z M 160,96 l 8,0 0,8 -8,0 z M 168,96 l 8,0 0,8 -8,0 z M 176,96 l 8,0 0,8 -8,0 z M 192,96 l 8,0 0,8 -8,0 z M 208,96 l 8,0 0,8 -8,0 z M 216,96 l 8,0 0,8 -8,0 z M 224,96 l 8,0 0,8 -8,0 z M 40,104 l 8,0 0,8 -8,0 z M 48,104 l 8,0 0,8 -8,0 z M 56,104 l 8,0 0,8 -8,0 z M 72,104 l 8,0 0,8 -8,0 z M 80,104 l 8,0 0,8 -8,0 z M 88,104 l 8,0 0,8 -8,0 z M 104,104 l 8,0 0,8 -8,0 z M 120,104 l 8,0 0,8 -8,0 z M 152,104 l 8,0 0,8 -8,0 z M 176,104 l 8,0 0,8 -8,0 z M 184,104 l 8,0 0,8 -8,0 z M 200,104 l 8,0 0,8 -8,0 z M 216,104 l 8,0 0,8 -8,0 z M 224,104 l 8,0 0,8 -8,0 z M 24,112 l 8,0 0,8 -8,0 z M 32,112 l 8,0 0,8 -8,0 z M 48,112 l 8,0 0,8 -8,0 z M 72,112 l 8,0 0,8 -8,0 z M 112,112 l 8,0 0,8 -8,0 z M 136,112 l 8,0 0,8 -8,0 z M 152,112 l 8,0 0,8 -8,0 z M 168,112 l 8,0 0,8 -8,0 z M 176,112 l 8,0 0,8 -8,0 z M 200,112 l 8,0 0,8 -8,0 z M 208,112 l 8,0 0,8 -8,0 z M 216,112 l 8,0 0,8 -8,0 z M 24,120 l 8,0 0,8 -8,0 z M 32,120 l 8,0 0,8 -8,0 z M 56,120 l 8,0 0,8 -8,0 z M 64,120 l 8,0 0,8 -8,0 z M 80,120 l 8,0 0,8 -8,0 z M 88,120 l 8,0 0,8 -8,0 z M 96,120 l 8,0 0,8 -8,0 z M 104,120 l 8,0 0,8 -8,0 z M 120,120 l 8,0 0,8 -8,0 z M 128,120 l 8,0 0,8 -8,0 z M 136,120 l 8,0 0,8 -8,0 z M 144,120 l 8,0 0,8 -8,0 z M 184,120 l 8,0 0,8 -8,0 z M 208,120 l 8,0 0,8 -8,0 z M 216,120 l 8,0 0,8 -8,0 z M 224,120 l 8,0 0,8 -8,0 z M 8,128 l 8,0 0,8 -8,0 z M 24,128 l 8,0 0,8 -8,0 z M 32,128 l 8,0 0,8 -8,0 z M 40,128 l 8,0 0,8 -8,0 z M 80,128 l 8,0 0,8 -8,0 z M 96,128 l 8,0 0,8 -8,0 z M 112,128 l 8,0 0,8 -8,0 z M 152,128 l 8,0 0,8 -8,0 z M 168,128 l 8,0 0,8 -8,0 z M 176,128 l 8,0 0,8 -8,0 z M 192,128 l 8,0 0,8 -8,0 z M 200,128 l 8,0 0,8 -8,0 z M 224,128 l 8,0 0,8 -8,0 z M 8,136 l 8,0 0,8 -8,0 z M 24,136 l 8,0 0,8 -8,0 z M 40,136 l 8,0 0,8 -8,0 z M 48,136 l 8,0 0,8 -8,0 z M 56,136 l 8,0 0,8 -8,0 z M 64,136 l 8,0 0,8 -8,0 z M 88,136 l 8,0 0,8 -8,0 z M 96,136 l 8,0 0,8 -8,0 z M 144,136 l 8,0 0,8 -8,0 z M 160,136 l 8,0 0,8 -8,0 z M 184,136 l 8,0 0,8 -8,0 z M 224,136 l 8,0 0,8 -8,0 z M 232,136 l 8,0 0,8 -8,0 z M 8,144 l 8,0 0,8 -8,0 z M 24,144 l 8,0 0,8 -8,0 z M 48,144 l 8,0 0,8 -8,0 z M 64,144 l 8,0 0,8 -8,0 z M 72,144 l 8,0 0,8 -8,0 z M 104,144 l 8,0 0,8 -8,0 z M 136,144 l 8,0 0,8 -8,0 z M 152,144 l 8,0 0,8 -8,0 z M 176,144 l 8,0 0,8 -8,0 z M 200,144 l 8,0 0,8 -8,0 z M 216,144 l 8,0 0,8 -8,0 z M 232,144 l 8,0 0,8 -8,0 z M 8,152 l 8,0 0,8 -8,0 z M 32,152 l 8,0 0,8 -8,0 z M 56,152 l 8,0 0,8 -8,0 z M 64,152 l 8,0 0,8 -8,0 z M 112,152 l 8,0 0,8 -8,0 z M 120,152 l 8,0 0,8 -8,0 z M 128,152 l 8,0 0,8 -8,0 z M 144,152 l 8,0 0,8 -8,0 z M 216,152 l 8,0 0,8 -8,0 z M 8,160 l 8,0 0,8 -8,0 z M 88,160 l 8,0 0,8 -8,0 z M 104,160 l 8,0 0,8 -8,0 z M 120,160 l 8,0 0,8 -8,0 z M 144,160 l 8,0 0,8 -8,0 z M 152,160 l 8,0 0,8 -8,0 z M 160,160 l 8,0 0,8 -8,0 z M 168,160 l 8,0 0,8 -8,0 z M 184,160 l 8,0 0,8 -8,0 z M 192,160 l 8,0 0,8 -8,0 z M 200,160 l 8,0 0,8 -8,0 z M 216,160 l 8,0 0,8 -8,0 z M 224,160 l 8,0 0,8 -8,0 z M 8,168 l 8,0 0,8 -8,0 z M 24,168 l 8,0 0,8 -8,0 z M 40,168 l 8,0 0,8 -8,0 z M 48,168 l 8,0 0,8 -8,0 z M 56,168 l 8,0 0,8 -8,0 z M 64,168 l 8,0 0,8 -8,0 z M 104,168 l 8,0 0,8 -8,0 z M 128,168 l 8,0 0,8 -8,0 z M 144,168 l 8,0 0,8 -8,0 z M 152,168 l 8,0 0,8 -8,0 z M 168,168 l 8,0 0,8 -8,0 z M 176,168 l 8,0 0,8 -8,0 z M 184,168 l 8,0 0,8 -8,0 z M 192,168 l 8,0 0,8 -8,0 z M 200,168 l 8,0 0,8 -8,0 z M 224,168 l 8,0 0,8 -8,0 z M 72,176 l 8,0 0,8 -8,0 z M 80,176 l 8,0 0,8 -8,0 z M 112,176 l 8,0 0,8 -8,0 z M 128,176 l 8,0 0,8 -8,0 z M 144,176 l 8,0 0,8 -8,0 z M 152,176 l 8,0 0,8 -8,0 z M 168,176 l 8,0 0,8 -8,0 z M 200,176 l 8,0 0,8 -8,0 z M 232,176 l 8,0 0,8 -8,0 z M 8,184 l 8,0 0,8 -8,0 z M 16,184 l 8,0 0,8 -8,0 z M 24,184 l 8,0 0,8 -8,0 z M 32,184 l 8,0 0,8 -8,0 z M 40,184 l 8,0 0,8 -8,0 z M 48,184 l 8,0 0,8 -8,0 z M 56,184 l 8,0 0,8 -8,0 z M 72,184 l 8,0 0,8 -8,0 z M 96,184 l 8,0 0,8 -8,0 z M 104,184 l 8,0 0,8 -8,0 z M 120,184 l 8,0 0,8 -8,0 z M 128,184 l 8,0 0,8 -8,0 z M 160,184 l 8,0 0,8 -8,0 z M 168,184 l 8,0 0,8 -8,0 z M 184,184 l 8,0 0,8 -8,0 z M 200,184 l 8,0 0,8 -8,0 z M 216,184 l 8,0 0,8 -8,0 z M 224,184 l 8,0 0,8 -8,0 z M 8,192 l 8,0 0,8 -8,0 z M 56,192 l 8,0 0,8 -8,0 z M 80,192 l 8,0 0,8 -8,0 z M 96,192 l 8,0 0,8 -8,0 z M 112,192 l 8,0 0,8 -8,0 z M 144,192 l 8,0 0,8 -8,0 z M 152,192 l 8,0 0,8 -8,0 z M 168,192 l 8,0 0,8 -8,0 z M 200,192 l 8,0 0,8 -8,0 z M 208,192 l 8,0 0,8 -8,0 z M 216,192 l 8,0 0,8 -8,0 z M 224,192 l 8,0 0,8 -8,0 z M 232,192 l 8,0 0,8 -8,0 z M 8,200 l 8,0 0,8 -8,0 z M 24,200 l 8,0 0,8 -8,0 z M 32,200 l 8,0 0,8 -8,0 z M 40,200 l 8,0 0,8 -8,0 z M 56,200 l 8,0 0,8 -8,0 z M 72,200 l 8,0 0,8 -8,0 z M 80,200 l 8,0 0,8 -8,0 z M 88,200 l 8,0 0,8 -8,0 z M 96,200 l 8,0 0,8 -8,0 z M 104,200 l 8,0 0,8 -8,0 z M 112,200 l 8,0 0,8 -8,0 z M 128,200 l 8,0 0,8 -8,0 z M 168,200 l 8,0 0,8 -8,0 z M 176,200 l 8,0 0,8 -8,0 z M 184,200 l 8,0 0,8 -8,0 z M 192,200 l 8,0 0,8 -8,0 z M 200,200 l 8,0 0,8 -8,0 z M 216,200 l 8,0 0,8 -8,0 z M 224,200 l 8,0 0,8 -8,0 z M 8,208 l 8,0 0,8 -8,0 z M 24,208 l 8,0 0,8 -8,0 z M 32,208 l 8,0 0,8 -8,0 z M 40,208 l 8,0 0,8 -8,0 z M 56,208 l 8,0 0,8 -8,0 z M 72,208 l 8,0 0,8 -8,0 z M 88,208 l 8,0 0,8 -8,0 z M 104,208 l 8,0 0,8 -8,0 z M 112,208 l 8,0 0,8 -8,0 z M 128,208 l 8,0 0,8 -8,0 z M 152,208 l 8,0 0,8 -8,0 z M 176,208 l 8,0 0,8 -8,0 z M 208,208 l 8,0 0,8 -8,0 z M 216,208 l 8,0 0,8 -8,0 z M 224,208 l 8,0 0,8 -8,0 z M 8,216 l 8,0 0,8 -8,0 z M 24,216 l 8,0 0,8 -8,0 z M 32,216 l 8,0 0,8 -8,0 z M 40,216 l 8,0 0,8 -8,0 z M 56,216 l 8,0 0,8 -8,0 z M 72,216 l 8,0 0,8 -8,0 z M 80,216 l 8,0 0,8 -8,0 z M 104,216 l 8,0 0,8 -8,0 z M 120,216 l 8,0 0,8 -8,0 z M 144,216 l 8,0 0,8 -8,0 z M 160,216 l 8,0 0,8 -8,0 z M 168,216 l 8,0 0,8 -8,0 z M 176,216 l 8,0 0,8 -8,0 z M 184,216 l 8,0 0,8 -8,0 z M 224,216 l 8,0 0,8 -8,0 z M 8,224 l 8,0 0,8 -8,0 z M 56,224 l 8,0 0,8 -8,0 z M 72,224 l 8,0 0,8 -8,0 z M 80,224 l 8,0 0,8 -8,0 z M 88,224 l 8,0 0,8 -8,0 z M 104,224 l 8,0 0,8 -8,0 z M 112,224 l 8,0 0,8 -8,0 z M 128,224 l 8,0 0,8 -8,0 z M 136,224 l 8,0 0,8 -8,0 z M 184,224 l 8,0 0,8 -8,0 z M 216,224 l 8,0 0,8 -8,0 z M 224,224 l 8,0 0,8 -8,0 z M 8,232 l 8,0 0,8 -8,0 z M 16,232 l 8,0 0,8 -8,0 z M 24,232 l 8,0 0,8 -8,0 z M 32,232 l 8,0 0,8 -8,0 z M 40,232 l 8,0 0,8 -8,0 z M 48,232 l 8,0 0,8 -8,0 z M 56,232 l 8,0 0,8 -8,0 z M 72,232 l 8,0 0,8 -8,0 z M 80,232 l 8,0 0,8 -8,0 z M 88,232 l 8,0 0,8 -8,0 z M 104,232 l 8,0 0,8 -8,0 z M 144,232 l 8,0 0,8 -8,0 z M 152,232 l 8,0 0,8 -8,0 z M 160,232 l 8,0 0,8 -8,0 z M 168,232 l 8,0 0,8 -8,0 z M 176,232 l 8,0 0,8 -8,0 z M 192,232 l 8,0 0,8 -8,0 z M 200,232 l 8,0 0,8 -8,0 z M 216,232 l 8,0 0,8 -8,0 z " />
	</g>
</svg>
