<?xml version="1.0" encoding="UTF-8" standalone="no"?>
<svg
   xmlns:dc="http://purl.org/dc/elements/1.1/"
   xmlns:cc="http://creativecommons.org/ns#"
   xmlns:rdf="http://www.w3.org/1999/02/22-rdf-syntax-ns#"
   xmlns:svg="http://www.w3.org/2000/svg"
   xmlns="http://www.w3.org/2000/svg"
   xmlns:sodipodi="http://sodipodi.sourceforge.net/DTD/sodipodi-0.dtd"
   xmlns:inkscape="http://www.inkscape.org/namespaces/inkscape"
   version="1.1"
   width="248"
   height="248"
   id="svg2"
   inkscape:version="0.91 r13725"
   sodipodi:docname="0x75105e510adf9fa0b1b1a5d35f9d8594ad36d8ed.svg">
  <metadata
     id="metadata17">
    <rdf:RDF>
      <cc:Work
         rdf:about="">
        <dc:format>image/svg+xml</dc:format>
        <dc:type
           rdf:resource="http://purl.org/dc/dcmitype/StillImage" />
      </cc:Work>
    </rdf:RDF>
  </metadata>
  <defs
     id="defs15" />
  <sodipodi:namedview
     pagecolor="#ffffff"
     bordercolor="#666666"
     borderopacity="1"
     objecttolerance="10"
     gridtolerance="10"
     guidetolerance="10"
     inkscape:pageopacity="0"
     inkscape:pageshadow="2"
     inkscape:window-width="1362"
     inkscape:window-height="729"
     id="namedview13"
     showgrid="false"
     inkscape:zoom="0.9516129"
     inkscape:cx="-40.983051"
     inkscape:cy="124"
     inkscape:window-x="0"
     inkscape:window-y="18"
     inkscape:window-maximized="0"
     inkscape:current-layer="svg2" />
  <!-- Created with https://api.qrserver.com (QR Code API, see goQR.me/api for information) -->
  <title
     id="title4">QR Code</title>
  <desc
     id="desc6">0x75105e510adf9fa0b1b1a5d35f9d8594ad36d8ed</desc>
  <rect
     style="fill:rgb(255, 255, 255);fill-opacity:1"
     x="0"
     y="0"
     width="248"
     height="248"
     id="rect8" />
  <g
     id="elements">
    <path
       style="fill:rgb(0, 0, 0)"
       d="M 8 8 L 8 16 L 8 24 L 8 32 L 8 40 L 8 48 L 8 56 L 8 64 L 16 64 L 24 64 L 32 64 L 40 64 L 48 64 L 56 64 L 64 64 L 64 56 L 64 48 L 64 40 L 64 32 L 64 24 L 64 16 L 64 8 L 56 8 L 48 8 L 40 8 L 32 8 L 24 8 L 16 8 L 8 8 z M 88 8 L 88 16 L 88 24 L 96 24 L 96 16 L 96 8 L 88 8 z M 104 8 L 104 16 L 112 16 L 120 16 L 120 8 L 112 8 L 104 8 z M 120 16 L 120 24 L 128 24 L 128 32 L 136 32 L 144 32 L 144 24 L 136 24 L 136 16 L 128 16 L 120 16 z M 144 32 L 144 40 L 152 40 L 152 48 L 160 48 L 160 40 L 160 32 L 168 32 L 176 32 L 176 24 L 168 24 L 160 24 L 152 24 L 152 32 L 144 32 z M 152 48 L 144 48 L 136 48 L 136 40 L 128 40 L 128 48 L 120 48 L 112 48 L 104 48 L 96 48 L 96 56 L 104 56 L 104 64 L 112 64 L 112 56 L 120 56 L 120 64 L 128 64 L 128 56 L 136 56 L 136 64 L 144 64 L 144 56 L 152 56 L 152 48 z M 152 56 L 152 64 L 144 64 L 144 72 L 144 80 L 144 88 L 152 88 L 160 88 L 168 88 L 168 80 L 168 72 L 160 72 L 160 64 L 160 56 L 152 56 z M 168 72 L 176 72 L 176 64 L 176 56 L 168 56 L 168 64 L 168 72 z M 176 72 L 176 80 L 176 88 L 184 88 L 184 96 L 192 96 L 192 88 L 192 80 L 184 80 L 184 72 L 176 72 z M 192 80 L 200 80 L 200 72 L 192 72 L 192 80 z M 200 80 L 200 88 L 200 96 L 208 96 L 208 88 L 216 88 L 216 80 L 216 72 L 208 72 L 208 80 L 200 80 z M 216 88 L 216 96 L 208 96 L 208 104 L 216 104 L 216 112 L 208 112 L 208 104 L 200 104 L 200 112 L 200 120 L 208 120 L 208 128 L 216 128 L 224 128 L 224 136 L 224 144 L 232 144 L 232 152 L 240 152 L 240 144 L 240 136 L 232 136 L 232 128 L 232 120 L 224 120 L 224 112 L 232 112 L 232 104 L 232 96 L 232 88 L 224 88 L 216 88 z M 224 144 L 216 144 L 216 152 L 216 160 L 216 168 L 224 168 L 224 176 L 232 176 L 232 168 L 232 160 L 224 160 L 224 152 L 224 144 z M 232 176 L 232 184 L 240 184 L 240 176 L 232 176 z M 232 184 L 224 184 L 216 184 L 216 192 L 208 192 L 208 184 L 208 176 L 208 168 L 208 160 L 200 160 L 192 160 L 184 160 L 184 168 L 176 168 L 176 160 L 168 160 L 160 160 L 152 160 L 152 152 L 144 152 L 144 160 L 144 168 L 144 176 L 144 184 L 152 184 L 160 184 L 160 176 L 160 168 L 168 168 L 168 176 L 168 184 L 160 184 L 160 192 L 168 192 L 168 200 L 168 208 L 176 208 L 176 216 L 168 216 L 160 216 L 160 224 L 168 224 L 176 224 L 184 224 L 184 232 L 192 232 L 192 224 L 192 216 L 184 216 L 184 208 L 192 208 L 200 208 L 208 208 L 208 200 L 216 200 L 216 208 L 208 208 L 208 216 L 216 216 L 224 216 L 224 224 L 216 224 L 216 232 L 216 240 L 224 240 L 224 232 L 232 232 L 232 224 L 232 216 L 232 208 L 232 200 L 240 200 L 240 192 L 232 192 L 232 184 z M 192 232 L 192 240 L 200 240 L 208 240 L 208 232 L 200 232 L 192 232 z M 184 232 L 176 232 L 168 232 L 160 232 L 152 232 L 144 232 L 144 240 L 152 240 L 160 240 L 168 240 L 176 240 L 184 240 L 184 232 z M 144 232 L 144 224 L 136 224 L 128 224 L 128 232 L 136 232 L 144 232 z M 128 224 L 128 216 L 120 216 L 120 224 L 128 224 z M 120 224 L 112 224 L 112 216 L 120 216 L 120 208 L 120 200 L 120 192 L 112 192 L 112 200 L 104 200 L 104 192 L 112 192 L 112 184 L 104 184 L 96 184 L 96 192 L 96 200 L 88 200 L 88 192 L 80 192 L 80 200 L 72 200 L 72 208 L 72 216 L 72 224 L 72 232 L 72 240 L 80 240 L 88 240 L 96 240 L 96 232 L 96 224 L 88 224 L 88 216 L 80 216 L 80 208 L 88 208 L 88 216 L 96 216 L 96 208 L 104 208 L 104 216 L 104 224 L 104 232 L 104 240 L 112 240 L 112 232 L 120 232 L 120 224 z M 80 192 L 80 184 L 88 184 L 88 176 L 80 176 L 72 176 L 72 184 L 72 192 L 80 192 z M 72 176 L 72 168 L 64 168 L 56 168 L 48 168 L 40 168 L 40 176 L 48 176 L 56 176 L 64 176 L 72 176 z M 112 184 L 120 184 L 120 176 L 112 176 L 112 184 z M 112 176 L 112 168 L 112 160 L 104 160 L 104 168 L 104 176 L 112 176 z M 112 160 L 120 160 L 120 168 L 128 168 L 128 160 L 136 160 L 136 152 L 128 152 L 120 152 L 112 152 L 112 160 z M 112 152 L 112 144 L 104 144 L 104 152 L 112 152 z M 104 144 L 104 136 L 104 128 L 112 128 L 112 120 L 104 120 L 96 120 L 88 120 L 80 120 L 80 128 L 80 136 L 88 136 L 88 128 L 96 128 L 96 136 L 88 136 L 88 144 L 96 144 L 104 144 z M 80 120 L 80 112 L 88 112 L 96 112 L 96 104 L 88 104 L 80 104 L 80 96 L 72 96 L 72 88 L 64 88 L 56 88 L 48 88 L 48 96 L 56 96 L 64 96 L 64 104 L 72 104 L 72 112 L 72 120 L 80 120 z M 72 120 L 64 120 L 56 120 L 56 128 L 64 128 L 72 128 L 72 120 z M 56 120 L 56 112 L 64 112 L 64 104 L 56 104 L 48 104 L 40 104 L 40 112 L 48 112 L 48 120 L 56 120 z M 40 112 L 32 112 L 24 112 L 24 120 L 24 128 L 24 136 L 24 144 L 24 152 L 32 152 L 32 144 L 32 136 L 40 136 L 40 144 L 48 144 L 48 152 L 56 152 L 56 144 L 64 144 L 64 152 L 56 152 L 56 160 L 64 160 L 72 160 L 72 152 L 80 152 L 80 144 L 72 144 L 72 136 L 64 136 L 56 136 L 48 136 L 48 128 L 40 128 L 40 120 L 40 112 z M 32 152 L 32 160 L 40 160 L 40 152 L 32 152 z M 112 120 L 120 120 L 120 112 L 112 112 L 112 120 z M 112 112 L 112 104 L 120 104 L 120 96 L 128 96 L 128 88 L 120 88 L 112 88 L 112 96 L 104 96 L 104 104 L 104 112 L 112 112 z M 112 88 L 112 80 L 104 80 L 104 88 L 112 88 z M 104 80 L 104 72 L 104 64 L 96 64 L 96 56 L 88 56 L 88 64 L 80 64 L 80 72 L 72 72 L 64 72 L 56 72 L 56 80 L 64 80 L 72 80 L 80 80 L 88 80 L 88 72 L 96 72 L 96 80 L 104 80 z M 96 80 L 88 80 L 88 88 L 88 96 L 96 96 L 96 88 L 96 80 z M 80 64 L 80 56 L 88 56 L 88 48 L 88 40 L 96 40 L 96 32 L 88 32 L 80 32 L 72 32 L 72 40 L 80 40 L 80 48 L 72 48 L 72 56 L 72 64 L 80 64 z M 112 80 L 120 80 L 128 80 L 128 88 L 136 88 L 136 80 L 136 72 L 136 64 L 128 64 L 128 72 L 120 72 L 112 72 L 112 80 z M 128 96 L 128 104 L 136 104 L 136 96 L 128 96 z M 128 104 L 120 104 L 120 112 L 128 112 L 128 104 z M 120 120 L 120 128 L 128 128 L 136 128 L 144 128 L 152 128 L 152 120 L 144 120 L 144 112 L 136 112 L 136 120 L 128 120 L 120 120 z M 152 120 L 160 120 L 160 112 L 160 104 L 168 104 L 176 104 L 176 112 L 168 112 L 168 120 L 176 120 L 184 120 L 184 112 L 192 112 L 192 104 L 184 104 L 184 96 L 176 96 L 168 96 L 160 96 L 152 96 L 144 96 L 144 104 L 152 104 L 152 112 L 152 120 z M 192 104 L 200 104 L 200 96 L 192 96 L 192 104 z M 184 120 L 184 128 L 192 128 L 192 120 L 184 120 z M 192 128 L 192 136 L 200 136 L 208 136 L 208 128 L 200 128 L 192 128 z M 192 136 L 184 136 L 184 144 L 192 144 L 192 136 z M 184 144 L 176 144 L 176 152 L 184 152 L 184 144 z M 184 136 L 184 128 L 176 128 L 168 128 L 168 136 L 176 136 L 184 136 z M 168 136 L 160 136 L 160 144 L 168 144 L 168 136 z M 160 144 L 152 144 L 152 152 L 160 152 L 160 144 z M 152 144 L 152 136 L 144 136 L 144 144 L 152 144 z M 144 144 L 136 144 L 136 152 L 144 152 L 144 144 z M 152 136 L 160 136 L 160 128 L 152 128 L 152 136 z M 120 128 L 112 128 L 112 136 L 120 136 L 120 128 z M 128 168 L 128 176 L 128 184 L 120 184 L 120 192 L 128 192 L 136 192 L 136 184 L 136 176 L 136 168 L 128 168 z M 128 216 L 136 216 L 136 208 L 136 200 L 128 200 L 128 208 L 128 216 z M 144 224 L 152 224 L 152 216 L 144 216 L 144 224 z M 152 216 L 160 216 L 160 208 L 152 208 L 152 216 z M 160 192 L 152 192 L 144 192 L 144 200 L 152 200 L 160 200 L 160 192 z M 120 24 L 112 24 L 104 24 L 104 32 L 104 40 L 112 40 L 112 32 L 120 32 L 120 24 z M 144 8 L 144 16 L 152 16 L 160 16 L 168 16 L 168 8 L 160 8 L 152 8 L 144 8 z M 184 8 L 184 16 L 184 24 L 184 32 L 184 40 L 184 48 L 184 56 L 184 64 L 192 64 L 200 64 L 208 64 L 216 64 L 224 64 L 232 64 L 240 64 L 240 56 L 240 48 L 240 40 L 240 32 L 240 24 L 240 16 L 240 8 L 232 8 L 224 8 L 216 8 L 208 8 L 200 8 L 192 8 L 184 8 z M 16 16 L 24 16 L 32 16 L 40 16 L 48 16 L 56 16 L 56 24 L 56 32 L 56 40 L 56 48 L 56 56 L 48 56 L 40 56 L 32 56 L 24 56 L 16 56 L 16 48 L 16 40 L 16 32 L 16 24 L 16 16 z M 72 16 L 72 24 L 80 24 L 80 16 L 72 16 z M 192 16 L 200 16 L 208 16 L 216 16 L 224 16 L 232 16 L 232 24 L 232 32 L 232 40 L 232 48 L 232 56 L 224 56 L 216 56 L 208 56 L 200 56 L 192 56 L 192 48 L 192 40 L 192 32 L 192 24 L 192 16 z M 24 24 L 24 32 L 24 40 L 24 48 L 32 48 L 40 48 L 48 48 L 48 40 L 48 32 L 48 24 L 40 24 L 32 24 L 24 24 z M 200 24 L 200 32 L 200 40 L 200 48 L 208 48 L 216 48 L 224 48 L 224 40 L 224 32 L 224 24 L 216 24 L 208 24 L 200 24 z M 168 40 L 168 48 L 176 48 L 176 40 L 168 40 z M 8 72 L 8 80 L 16 80 L 16 88 L 24 88 L 32 88 L 32 80 L 40 80 L 48 80 L 48 72 L 40 72 L 32 72 L 24 72 L 16 72 L 8 72 z M 32 88 L 32 96 L 40 96 L 40 88 L 32 88 z M 16 88 L 8 88 L 8 96 L 8 104 L 16 104 L 16 96 L 16 88 z M 224 72 L 224 80 L 232 80 L 232 72 L 224 72 z M 8 128 L 8 136 L 8 144 L 8 152 L 8 160 L 8 168 L 8 176 L 16 176 L 16 168 L 16 160 L 16 152 L 16 144 L 16 136 L 16 128 L 8 128 z M 200 144 L 200 152 L 208 152 L 208 144 L 200 144 z M 88 160 L 88 168 L 96 168 L 96 160 L 88 160 z M 24 168 L 24 176 L 32 176 L 32 168 L 24 168 z M 176 176 L 184 176 L 192 176 L 200 176 L 200 184 L 200 192 L 200 200 L 192 200 L 184 200 L 176 200 L 176 192 L 176 184 L 176 176 z M 8 184 L 8 192 L 8 200 L 8 208 L 8 216 L 8 224 L 8 232 L 8 240 L 16 240 L 24 240 L 32 240 L 40 240 L 48 240 L 56 240 L 64 240 L 64 232 L 64 224 L 64 216 L 64 208 L 64 200 L 64 192 L 64 184 L 56 184 L 48 184 L 40 184 L 32 184 L 24 184 L 16 184 L 8 184 z M 184 184 L 184 192 L 192 192 L 192 184 L 184 184 z M 16 192 L 24 192 L 32 192 L 40 192 L 48 192 L 56 192 L 56 200 L 56 208 L 56 216 L 56 224 L 56 232 L 48 232 L 40 232 L 32 232 L 24 232 L 16 232 L 16 224 L 16 216 L 16 208 L 16 200 L 16 192 z M 24 200 L 24 208 L 24 216 L 24 224 L 32 224 L 40 224 L 48 224 L 48 216 L 48 208 L 48 200 L 40 200 L 32 200 L 24 200 z "
       id="path11" />
  </g>
</svg>
